<svg width="15" height="15" viewBox="0 0 15 15" fill="none" xmlns="http://www.w3.org/2000/svg">
<path d="M10 1.66667L13.3333 5M13.3333 1.66667L10 5M7.33333 2H4.2C3.0799 2 2.51984 2 2.09202 2.21799C1.71569 2.40973 1.40973 2.7157 1.21799 3.09202C1 3.51984 1 4.0799 1 5.2V10.8C1 11.9201 1 12.4802 1.21799 12.908C1.40973 13.2843 1.71569 13.5903 2.09202 13.782C2.51984 14 3.07989 14 4.2 14H10.3333C10.9533 14 11.2633 14 11.5176 13.9319C12.2078 13.7469 12.7469 13.2078 12.9319 12.5176C13 12.2633 13 11.9533 13 11.3333M6 5.66667C6 6.40305 5.40305 7 4.66667 7C3.93029 7 3.33333 6.40305 3.33333 5.66667C3.33333 4.93029 3.93029 4.33333 4.66667 4.33333C5.40305 4.33333 6 4.93029 6 5.66667ZM8.99336 7.94543L3.3541 13.072C3.03691 13.3604 2.87831 13.5046 2.86429 13.6295C2.85213 13.7377 2.89364 13.8451 2.97546 13.917C3.06985 14 3.28419 14 3.71286 14H9.97065C10.9301 14 11.4098 14 11.7866 13.8388C12.2596 13.6365 12.6365 13.2596 12.8388 12.7866C13 12.4098 13 11.9301 13 10.9707C13 10.6478 13 10.4864 12.9647 10.3361C12.9204 10.1472 12.8353 9.97024 12.7155 9.8176C12.6202 9.69613 12.4941 9.5953 12.242 9.39364L10.3772 7.90177C10.1249 7.69994 9.99878 7.59902 9.85986 7.56341C9.73742 7.53202 9.60858 7.53608 9.48836 7.57513C9.35196 7.61943 9.23242 7.7281 8.99336 7.94543Z" stroke="#344054" stroke-width="1.6" stroke-linecap="round" stroke-linejoin="round"/>
</svg>
