<svg width="15" height="16" viewBox="0 0 15 16" fill="none" xmlns="http://www.w3.org/2000/svg">
<path d="M10.1 3.8V3.24C10.1 2.45593 10.1 2.06389 9.94741 1.76441C9.81319 1.50099 9.59901 1.28681 9.33559 1.15259C9.03611 1 8.64407 1 7.86 1H6.74C5.95593 1 5.56389 1 5.26441 1.15259C5.00099 1.28681 4.78681 1.50099 4.65259 1.76441C4.5 2.06389 4.5 2.45593 4.5 3.24V3.8M5.9 7.65V11.15M8.7 7.65V11.15M1 3.8H13.6M12.2 3.8V11.64C12.2 12.8161 12.2 13.4042 11.9711 13.8534C11.7698 14.2485 11.4485 14.5698 11.0534 14.7711C10.6042 15 10.0161 15 8.84 15H5.76C4.58389 15 3.99583 15 3.54662 14.7711C3.15148 14.5698 2.83022 14.2485 2.62889 13.8534C2.4 13.4042 2.4 12.8161 2.4 11.64V3.8" stroke="#475467" stroke-width="1.6" stroke-linecap="round" stroke-linejoin="round"/>
</svg>
